<svg version="1.1" viewBox="0.0 0.0 2000.0 2000.0" fill="none" stroke="none" stroke-linecap="square" stroke-miterlimit="10" xmlns:xlink="http://www.w3.org/1999/xlink" xmlns="http://www.w3.org/2000/svg"><clipPath id="p.0"><path d="m0 0l2000.0 0l0 2000.0l-2000.0 0l0 -2000.0z" clip-rule="nonzero"/></clipPath><g clip-path="url(#p.0)"><path fill="#000000" fill-opacity="0.0" d="m0 0l2000.0 0l0 2000.0l-2000.0 0z" fill-rule="evenodd"/><path fill="#000000" fill-opacity="0.0" d="m-270.54523 -480.8396l2474.3306 0l0 2829.6062l-2474.3306 0z" fill-rule="evenodd"/><path fill="#6d9eeb" d="m294.4676 1731.0437l0 -1477.1719l620.1094 0q174.95319 0 321.12506 50.9375q146.17188 50.9375 252.46875 146.17188q106.296875 95.21875 166.09375 231.42188q59.796875 136.20312 59.796875 308.95312q0 172.73438 -59.796875 308.9375q-59.796875 136.20312 -166.09375 232.54688q-106.296875 96.328125 -252.46875 147.26562q-146.17188 50.9375 -318.9063 50.9375l-622.3281 0zm620.1094 -332.20312q97.4375 0 173.84381 -33.21875q76.40625 -33.21875 128.45312 -88.578125q52.046875 -55.375 79.71875 -129.5625q27.6875 -74.1875 27.6875 -156.125q0 -86.375 -25.46875 -159.45312q-25.46875 -73.09375 -76.40625 -128.45312q-50.921875 -55.375 -127.328125 -86.375q-76.40631 -31.015625 -178.28131 -31.015625l-241.40625 0l0 812.78125l239.1875 0z" fill-rule="nonzero"/></g></svg>